<svg width="530" height="439" viewBox="0 0 530 439" fill="none" xmlns="http://www.w3.org/2000/svg">
<path d="M440.375 416.461C426.763 421.556 413.296 427.038 399.532 431.658C369.084 441.897 338.595 441.351 308.261 430.442C277.191 419.261 253.348 399.362 235.797 371.174C230.577 362.782 222.44 356.242 216.763 348.075C190.218 309.895 184.963 268.398 198.23 224.353C203.607 206.554 212.988 191.043 224.503 176.599C229.162 170.735 232.091 163.505 236.254 157.201C248.92 138.028 266.286 122.474 286.687 112.028C319.547 94.8737 353.86 91.1072 389.474 101.453C409.898 107.38 430.614 112.957 450.097 121.316C475.773 132.329 494.581 152.034 509.048 176.083C524.464 201.71 529.644 229.436 528.141 258.89C527.84 264.696 529.619 270.577 529.842 276.439C531.981 332.622 509.678 375.89 462.264 405.626C455.365 409.956 447.958 413.355 440.687 417.224L440.375 416.461ZM389.031 165.123C368.824 144.263 344.698 135.055 316.906 135.354C314.373 135.514 312.003 136.644 310.283 138.513C302.591 147.725 294.292 156.659 288.082 166.823C280.821 178.741 277.607 192.384 277.541 206.874C303.107 198.476 326.403 199.915 346.173 220.565C347.515 191.811 364.205 175.71 389.031 165.123ZM401.838 236.124C429.645 229.114 450.228 240.167 467.786 260.313C480.155 237.443 481.773 213.879 475.692 189.544C474.334 184.079 472.68 178.672 466.589 175.619C450.712 167.737 434.337 162.201 416.464 163.053C408.794 163.417 401.195 164.676 392.638 165.639C409.193 188.587 415.164 211.003 401.838 236.124ZM404.349 294.181C420.762 318.408 415.676 341.578 402.775 364.513C424.478 369.721 444.448 364.538 463.647 355.671C474.342 350.734 484.089 344.432 483.153 330.023C482.83 325.131 483.862 320.185 483.692 315.275C483.064 297.165 479.078 280.085 467.657 264.988C452.045 286.899 432.466 299.628 404.349 294.181ZM350.528 314.33C332.525 335.335 316.306 340.074 283.054 334.057C284.512 340.498 285.298 346.803 287.374 352.665C294.451 372.348 306.979 388.07 323.7 400.396C325.307 401.566 327.258 402.156 329.235 402.071C356.73 399.39 380.287 388.945 398.047 366.444C373.236 357.493 354.015 343.436 350.528 314.33ZM275.102 211.174C272.922 211.783 270.798 212.578 268.754 213.55C248.868 225.355 235.094 242.351 226.596 263.864C224.639 268.85 223.523 273.574 226.492 278.569C230.452 285.26 233.617 292.514 238.233 298.693C249.131 313.279 262.879 324.131 280.481 330.261C280.513 303.344 288.847 281.571 314.231 268.868C287.789 258.848 277.426 237.916 275.102 211.174ZM222.301 268.046C222.932 267.233 223.493 266.367 223.978 265.458C232.177 242.123 246.369 223.837 268.137 211.795C272.04 209.64 275.68 207.771 275.798 201.62C276.114 185.569 281.934 171.004 290.888 157.92C296.165 150.211 302.452 143.218 308.447 135.694C307.449 135.63 306.449 135.626 305.452 135.682C287.703 137.504 270.64 143.459 255.613 153.073C239.37 163.581 224.992 175.323 220.325 196.149C214.994 220.077 213.997 243.462 222.301 268.046ZM330.349 404.48C332.141 405.885 334.016 407.177 335.965 408.351C355.868 418.646 376.92 424.057 399.309 422.475C407.531 421.89 416.621 421.714 423.634 418.075C437.748 410.751 449.52 399.891 459.294 387.019C467.922 375.643 474.843 363.453 478.934 348.828C455.658 364.688 431.134 372.056 403.602 367.217C401.974 366.933 399.411 368.533 398.177 370.008C380.77 390.977 357.93 401.181 330.349 404.48ZM470.286 175.421C469.646 173.394 469.432 172.434 469.061 171.547C461.092 152.723 448.021 136.513 431.347 124.775C423.22 119.005 414.547 111.919 405.284 110.254C379.017 105.541 353.77 111.047 330.321 123.865C326.136 126.152 322.348 129.143 317.345 132.496C320.173 132.771 321.577 132.952 322.99 133.05C344.077 133.928 363.686 140.186 379.653 153.927C388.085 161.184 395.021 163.947 406.132 161.854C428.426 157.614 449.447 163.65 470.286 175.421ZM476.161 182.102C483.62 209.694 483.78 235.499 470.214 260.19C469.602 261.313 470.17 263.607 470.926 264.884C480.07 279.148 485.223 295.613 485.842 312.537C486.131 322.002 484.95 331.537 484.392 341.425C503.376 324.986 515.529 304.437 521.676 280.496C523.676 272.762 525.721 264.089 524.159 256.595C521.762 245.066 516.963 233.837 511.923 223.097C504.062 206.588 491.932 193.41 476.161 182.102ZM321.564 402.396C290.023 375.539 284.781 355.423 280.551 332.781C257.021 324.564 237.71 307.688 222.808 277.495C222.253 279.37 221.678 280.838 221.392 282.372C216.308 309.327 220.683 335.115 232.028 359.799C234.321 364.794 238.322 369.296 242.386 373.12C253.515 383.62 267.047 390.327 281.12 395.618C294.037 400.541 307.783 402.845 321.564 402.396ZM401.293 364.442C404.666 355.18 409.031 346.413 410.99 337.12C414.547 320.256 411.88 304.402 398.26 292.088C389.337 284.016 375.865 282.312 367.773 287.062C349.386 297.852 350.586 321.095 359.299 335.285C368.699 350.499 382.472 359.369 401.34 364.425L401.293 364.442ZM281.328 233.495C287.827 249.088 297.575 260.744 313.951 266C326.273 269.933 339.125 266.095 346.071 256.375C352.678 247.129 351.84 234.216 344.609 223.524C330.506 202.712 298.673 200.309 279.737 209.278C278.535 209.849 277.572 212.649 277.795 214.232C278.751 220.674 280.152 227.069 281.374 233.478L281.328 233.495ZM403.307 187.67C400.008 182.039 396.907 176.267 393.268 170.856C392.356 169.517 389.332 168.33 387.951 168.847C367.459 176.452 353.206 190.014 349.148 212.359C346.412 227.422 354.095 241.865 366.765 246.801C379.02 251.546 392.582 246.069 400.737 232.51C409.373 218.117 408.409 203.173 403.353 187.653L403.307 187.67ZM325.494 330.408C333.516 328.192 339.985 323.17 345.485 316.658C355.976 304.251 355.473 286.014 344.268 276.156C334.915 267.925 318.899 267.588 307.772 275.153C289.219 287.725 282.614 306.023 283.129 327.616C283.321 328.655 283.763 329.632 284.417 330.462C285.071 331.291 285.917 331.947 286.881 332.371C299.848 335.343 312.734 336.012 325.541 330.391L325.494 330.408ZM435.604 289.28C444.346 286.621 452.508 280.538 458.881 272.433C467.859 261.072 469.041 264.23 458.252 253.79C442.113 238.246 423.171 230.764 401.125 239.697C390.875 243.841 384.118 251.944 383.747 263.536C383.403 273.784 387.805 282.149 396.83 287.704C409.048 295.142 421.565 294.789 435.65 289.263L435.604 289.28ZM525.65 246.157C529.178 184.226 476.075 121.297 418.267 112.7C418.752 113.185 419.142 113.625 419.589 114.005C420.056 114.404 420.555 114.766 421.079 115.087C444.981 129.457 462.738 149.182 473.164 175.37C474.071 177.133 475.419 178.628 477.076 179.706C489.866 189.13 501.164 200.153 509.295 213.815C515.709 224.48 520.638 236.021 525.696 246.14L525.65 246.157ZM219.328 187.762C176.941 242.482 191.248 322.895 228.934 358.957C217.083 331.223 213.673 303.207 220.924 274.228C221.174 272.439 220.913 270.613 220.17 268.963C215.227 256.285 213.077 242.692 213.869 229.125C214.757 214.886 217.582 200.802 219.386 187.741L219.328 187.762ZM233.435 166.389C234.264 166.197 235.063 165.897 235.814 165.498C257.212 146.035 282.162 134.895 311.155 133.067C312.783 132.964 314.434 131.719 315.866 130.703C334.369 117.536 354.64 109.095 377.462 107.324C383.26 106.873 389.057 106.49 396.308 105.962C334.359 84.2889 264.038 110.655 233.435 166.389ZM241.935 376.05C282.643 437.006 361.974 449.905 410.251 424.205C408.468 424.286 406.668 424.32 404.884 424.468C379.998 426.518 356.385 422.145 334.441 409.722C330.95 407.748 327.111 404.879 323.475 404.92C293.366 405.179 266.861 395.343 241.93 376.038L241.935 376.05ZM429.999 417.158C496.618 398.645 535.829 330.035 526.566 269.986C520.748 300.389 507.094 325.447 483.801 344.9C482.409 346.061 481.946 348.394 481.118 350.21C476.909 359.359 473.395 368.914 468.415 377.631C459.236 393.507 446.251 406.075 429.995 417.147L429.999 417.158ZM354.344 240.798C352.224 246.445 351.072 252.276 348.032 256.841C344.991 261.406 340.028 264.797 335.895 268.704C348.067 272.946 353.998 282.073 355.72 295.121C363.93 284.394 374.439 280.553 387.621 283.072C380.504 272.083 379.28 261.075 386.104 248.521C372.809 252.872 362.461 249.653 354.339 240.787L354.344 240.798Z" fill="white"/>
<path d="M340.176 150.82C340.176 165.354 340.588 179.889 340.089 194.398C339.002 226.503 327.802 254.866 306.95 279.449C285.586 304.628 258.59 319.98 226.038 326.535C216.348 328.48 207.371 333.808 197.731 336.262C152.668 347.736 111.963 338.108 75.3651 310.241C60.5813 298.965 49.3436 284.74 39.854 268.892C35.9957 262.474 30.252 257.195 25.8069 251.087C12.2924 232.503 3.81426 210.786 1.18412 188.017C-3.36092 151.229 5.1419 117.773 27.3177 88.0474C40.0288 70.9976 52.515 53.5512 67.174 38.2361C86.4904 18.0513 111.538 7.34561 139.133 2.22818C168.539 -3.22381 196.32 1.64581 223.378 13.38C228.71 15.6971 234.841 16.0936 240.41 17.9399C293.777 35.6341 326.478 71.6915 337.703 126.521C339.339 134.501 339.926 142.629 341 150.795L340.176 150.82ZM86.7906 110.785C60.1697 122.395 43.0883 141.762 33.6236 167.894C32.8857 170.322 33.1133 172.939 34.2601 175.205C40.1912 185.638 45.6477 196.542 52.9897 205.922C61.6052 216.9 73.2551 224.694 86.8028 229.836C87.9016 202.948 97.4162 181.636 123.688 170.36C97.2289 159.022 88.0018 137.747 86.7906 110.785ZM157.775 123.684C160.959 95.1846 178.528 79.7827 203.55 70.4028C186.469 50.8005 164.968 41.0241 140.045 38.1865C134.451 37.5422 128.807 37.1953 123.812 41.8295C110.864 53.9354 99.9386 67.3299 94.4696 84.3674C92.1221 91.678 90.6363 99.2364 88.5386 107.588C115.834 100.129 138.921 102.396 157.775 123.684ZM213.027 141.688C241.471 134.811 261.387 147.697 278.343 167.82C290.83 149.32 292.977 128.801 291.404 107.712C290.53 95.9652 288.045 84.6276 274.223 80.4518C269.528 79.0393 265.258 76.3381 260.6 74.7769C243.419 69.0151 226.026 66.7599 207.883 72.1623C222.929 94.4659 227.986 117.265 213.027 141.688ZM213.027 199.157C226.388 223.381 225.139 240.232 207.845 269.264C214.388 270.156 220.569 271.631 226.787 271.742C247.702 272.015 266.818 265.795 284.224 254.457C285.883 253.362 287.12 251.741 287.733 249.86C294.863 223.17 293.34 197.447 278.493 172.925C261.412 193.023 241.508 206.095 213.027 199.157ZM89.9744 233.628C89.78 235.883 89.78 238.151 89.9744 240.406C94.0574 263.168 105.145 282.027 122.314 297.528C126.297 301.109 130.33 303.81 136.049 302.781C143.703 301.418 151.607 300.997 159.011 298.841C176.492 293.749 191.476 284.678 203.388 270.342C178.191 260.876 160.722 245.436 157.725 217.21C139.07 238.46 115.834 240.827 89.9744 233.628ZM124.724 303.017C124.184 302.141 123.57 301.312 122.888 300.539C103.909 284.678 91.7596 264.977 88.1136 240.369C87.4643 235.957 86.9899 231.893 81.2711 229.626C66.3499 223.703 54.7501 213.146 45.635 200.173C40.2659 192.527 35.921 184.188 30.9764 175.936C30.5668 176.848 30.2123 177.783 29.9149 178.736C25.3988 195.998 24.9931 214.065 28.7291 231.509C32.8745 250.405 38.8304 267.988 56.6984 279.66C77.2384 293.042 98.7898 302.174 124.724 303.017ZM290.38 249.662C292.324 248.476 294.192 247.172 295.974 245.759C312.593 230.729 325.042 212.91 331.41 191.387C333.745 183.482 336.767 174.908 335.818 167.064C333.908 151.278 327.864 136.446 319.236 122.779C311.607 110.71 302.617 99.9551 290.355 90.9965C297.048 118.356 295.35 143.906 281.165 167.993C280.329 169.418 280.928 172.38 281.877 174.053C295.412 197.707 296.961 222.674 290.38 249.662ZM124.923 38.2981C122.801 38.1866 121.827 38.0502 120.865 38.0874C100.443 38.951 80.6791 45.5086 63.8402 57.0083C55.5868 62.5966 45.9099 68.2345 41.1026 76.3257C27.48 99.2736 23.7843 124.848 27.5676 151.303C28.2419 156.024 29.7154 160.621 31.1014 166.482C32.35 163.929 33.0118 162.678 33.5986 161.389C41.8146 141.948 54.5505 125.778 73.0178 115.642C82.7697 110.289 87.789 104.763 89.7244 93.6233C93.5702 71.2578 106.593 53.6876 124.923 38.2981ZM133.239 35.1384C161.696 37.8272 185.919 46.7239 204.287 68.0858C205.123 69.0522 207.471 69.3248 208.932 69.0646C225.496 65.5025 242.723 66.4486 258.79 71.803C267.755 74.8512 276.271 79.2995 285.336 83.2894C276.595 59.7467 261.612 41.1603 241.346 27.0099C234.804 22.4253 227.399 17.469 219.832 16.3043C208.195 14.5076 195.996 15.0651 184.171 16.0192C165.954 17.5929 149.359 24.3335 133.239 35.1384ZM285.348 257.158C249.138 277.281 228.46 275.137 205.772 271.16C189.827 290.316 167.252 302.484 133.752 305.854C135.312 307.032 136.486 308.085 137.822 308.89C161.284 323.103 186.968 328.046 214.064 326.076C219.545 325.68 225.164 323.511 230.171 321.046C243.906 314.305 254.931 303.983 264.82 292.658C273.96 282.287 280.937 270.222 285.348 257.158ZM277.757 169.183C270.265 162.777 263.585 155.615 255.568 150.522C241.022 141.279 225.239 138.218 208.932 146.656C198.244 152.183 191.925 164.202 193.536 173.445C197.195 194.448 219.383 201.474 235.728 198.289C253.271 194.82 266.407 185.031 277.757 169.133V169.183ZM113.061 235.623C129.943 235.003 144.277 229.96 154.941 216.467C162.944 206.306 163.856 192.924 157.188 183.011C150.845 173.582 138.459 169.84 125.91 172.863C101.474 178.774 88.0638 207.743 89.8244 228.622C89.9368 229.948 92.2217 231.831 93.7825 232.178C100.151 233.541 106.631 234.471 113.061 235.573V235.623ZM112.912 105.32C106.481 106.436 99.9883 107.315 93.6453 108.827C92.072 109.211 89.8994 111.627 89.8994 113.102C89.837 134.959 97.5413 153.062 117.045 164.697C130.193 172.541 146.413 170.41 155.478 160.274C164.218 150.46 163.843 135.839 154.004 123.448C143.553 110.314 129.219 105.977 112.912 105.271V105.32ZM219.308 228.238C220.045 219.948 217.61 212.13 213.439 204.695C205.498 190.52 188.242 184.597 175.082 191.635C164.094 197.509 158.163 212.39 161.347 225.462C166.616 247.246 181.437 259.847 201.839 266.935C202.88 267.12 203.95 267.049 204.956 266.727C205.962 266.405 206.873 265.842 207.608 265.088C214.938 253.986 220.082 242.153 219.308 228.188V228.238ZM219.395 110.698C219.97 101.578 217.135 91.8019 211.778 82.992C204.287 70.6011 207.658 70.6011 194.098 77.0443C173.883 86.7092 160.235 101.826 160.872 125.604C161.159 136.657 166.378 145.826 177.104 150.237C186.581 154.153 195.959 152.963 204.324 146.458C215.575 137.623 219.633 125.778 219.395 110.648V110.698ZM210.58 11.2488C153.817 -13.7684 76.2642 13.9005 47.9451 65.0252C48.5694 64.7402 49.119 64.5296 49.6309 64.2446C50.169 63.9465 50.6825 63.6068 51.1667 63.2285C73.0053 45.8813 97.7031 36.1669 125.885 35.5845C127.853 35.3539 129.726 34.6147 131.316 33.4408C144.627 24.7672 158.911 18.0514 174.557 15.2263C186.793 12.9587 199.33 12.3888 210.58 11.1992V11.2488ZM48.4945 277.653C84.8797 336.534 165.204 351.329 212.191 328.678C182.061 330.054 154.629 323.425 130.031 306.474C128.443 305.612 126.642 305.217 124.836 305.334C111.23 305.518 97.7456 302.766 85.317 297.268C72.2937 291.444 60.0943 283.861 48.4945 277.591V277.653ZM33.4236 256.948C33.5343 256.104 33.5343 255.251 33.4236 254.407C22.6979 227.544 21.0123 200.272 29.4656 172.479C29.9401 170.918 29.353 168.935 28.9034 167.238C23.0598 145.293 22.261 123.349 28.6041 101.355C30.2148 95.767 31.888 90.2035 33.9358 83.2274C-8.08078 133.646 -8.04352 208.747 33.4236 256.948ZM232.756 322.495C304.115 305.743 344.009 235.97 336.867 181.747C336.318 183.445 335.718 185.142 335.231 186.865C328.426 210.891 316.052 231.472 296.723 247.667C293.652 250.244 289.618 252.834 288.382 256.254C278.069 284.542 259.564 305.916 232.743 322.495H232.756ZM337.191 160.782C343.21 91.901 292.702 31.1237 233.217 18.7452C259.651 34.8534 278.331 56.4259 288.382 85.0613C288.982 86.7712 291.004 88.0227 292.415 89.4352C299.508 96.5848 307.224 103.226 313.642 110.946C325.292 125.109 332.509 141.675 337.179 160.782H337.191ZM145.501 169.803C150.046 173.768 155.103 176.89 158.312 181.338C161.521 185.787 162.957 191.623 165.167 196.864C173.408 186.951 184.034 184.597 196.858 187.559C189.69 176.109 189.778 164.921 196.758 153.459C183.972 156.272 173.234 153.558 163.869 142.766C163.282 156.743 156.639 165.305 145.489 169.803H145.501Z" fill="#FF8FBD"/>
</svg>
