<svg width="25" height="24" viewBox="0 0 25 24" fill="none" xmlns="http://www.w3.org/2000/svg">
<path d="M11.5659 16.0731C12.1127 16.5078 12.8871 16.5075 13.4336 16.0724L19.86 10.9565L20.0182 10.8312C20.7755 10.2315 20.7768 9.08264 20.0207 8.48129L13.4337 3.24257C12.8871 2.80788 12.1129 2.80788 11.5663 3.24257L4.97483 8.48489C4.22015 9.08509 4.21966 10.2312 4.97383 10.8321L5.13 10.9565L11.5659 16.0731Z" fill="#5B4162"/>
<path fill-rule="evenodd" clip-rule="evenodd" d="M15.0166 9.72656C15.3968 9.72656 15.7051 9.41832 15.7051 9.03809V9.03809C15.7051 8.65785 15.3968 8.34961 15.0166 8.34961H13.5254V6.74121C13.5254 6.33185 13.1935 6 12.7842 6V6C12.3748 6 12.043 6.33185 12.043 6.74121V8.34961H10.5459C10.1657 8.34961 9.85742 8.65785 9.85742 9.03809V9.03809C9.85742 9.41832 10.1657 9.72656 10.5459 9.72656H12.043V11.4697C12.043 11.8791 12.3748 12.2109 12.7842 12.2109V12.2109C13.1935 12.2109 13.5254 11.8791 13.5254 11.4697V9.72656H15.0166ZM13.5254 9.72656V8.34961H12.043V9.72656H13.5254Z" fill="white"/>
<path d="M13.5254 9.72656V8.34961H12.043V9.72656H13.5254Z" fill="white"/>
<path opacity="0.3" fill-rule="evenodd" clip-rule="evenodd" d="M13.4235 18.6705C12.877 19.1051 12.1029 19.1052 11.5564 18.6707L5.83835 14.1248C5.44311 13.8106 4.86728 13.8801 4.55812 14.2793V14.2793C4.25043 14.6766 4.32487 15.2484 4.72404 15.5537L11.5873 20.8031C12.1251 21.2144 12.8718 21.2145 13.4096 20.8033L20.2696 15.5584C20.6722 15.2506 20.747 14.6739 20.4364 14.2735V14.2735C20.1247 13.8718 19.5448 13.8021 19.1468 14.1186L13.4235 18.6705Z" fill="#5B4162"/>
</svg>
