<svg width="163" height="163" viewBox="0 0 163 163" fill="none" xmlns="http://www.w3.org/2000/svg">
<rect x="0.202148" width="162.697" height="162.697" fill="white"/>
<path d="M144.691 73.6127C144.691 79.0684 144.845 84.5242 144.658 89.9707C144.25 102.022 140.046 112.668 132.219 121.896C124.199 131.347 114.066 137.11 101.847 139.57C98.21 140.3 94.8401 142.3 91.2217 143.221C74.3065 147.528 59.027 143.914 45.2895 133.454C39.7402 129.221 35.5219 123.882 31.9599 117.933C30.5116 115.524 28.3556 113.543 26.687 111.25C21.6142 104.274 18.4317 96.1219 17.4445 87.5753C15.7384 73.7662 18.9301 61.2081 27.2541 50.0501C32.0255 43.6501 36.7124 37.1013 42.2149 31.3525C49.4656 23.7759 58.8678 19.7573 69.226 17.8364C80.2638 15.7899 90.6921 17.6178 100.849 22.0224C102.85 22.8922 105.151 23.041 107.242 23.734C127.274 30.3758 139.549 43.9106 143.763 64.4918C144.377 67.4871 144.597 70.5383 145 73.6034L144.691 73.6127ZM49.5783 58.5849C39.5857 62.943 33.1739 70.2127 29.6212 80.0219C29.3442 80.9333 29.4296 81.9154 29.8601 82.7661C32.0864 86.6823 34.1346 90.7753 36.8905 94.2962C40.1245 98.4171 44.4975 101.343 49.5829 103.273C49.9953 93.1799 53.5668 85.18 63.4282 80.9475C53.4965 76.6917 50.0329 68.7057 49.5783 58.5849ZM76.2235 63.4267C77.4186 52.7291 84.0133 46.9478 93.4059 43.4269C86.9942 36.0688 78.9233 32.3991 69.5681 31.334C67.4684 31.0921 65.3499 30.9619 63.4751 32.7014C58.6147 37.2455 54.5136 42.2734 52.4607 48.6687C51.5796 51.4129 51.0218 54.25 50.2344 57.3849C60.4801 54.5849 69.1462 55.4361 76.2235 63.4267ZM96.9633 70.1848C107.64 67.6034 115.116 72.4406 121.481 79.994C126.168 73.0499 126.974 65.3476 126.383 57.4314C126.055 53.0221 125.123 48.7664 119.934 47.1989C118.172 46.6687 116.569 45.6548 114.821 45.0687C108.371 42.906 101.843 42.0594 95.0324 44.0873C100.68 52.4593 102.578 61.0174 96.9633 70.1848ZM96.9633 91.7567C101.978 100.85 101.51 107.175 95.0182 118.073C97.4742 118.408 99.7942 118.961 102.128 119.003C109.979 119.105 117.155 116.77 123.688 112.515C124.311 112.103 124.775 111.495 125.005 110.789C127.682 100.771 127.11 91.1149 121.537 81.9103C115.125 89.4544 107.654 94.3613 96.9633 91.7567ZM50.7734 104.696C50.7004 105.543 50.7004 106.394 50.7734 107.24C52.306 115.784 56.468 122.863 62.9125 128.682C64.4077 130.026 65.9216 131.04 68.0682 130.654C70.9413 130.142 73.9082 129.984 76.6876 129.175C83.2493 127.263 88.8737 123.859 93.3451 118.477C83.8868 114.924 77.3296 109.129 76.2047 98.5334C69.2024 106.51 60.4801 107.398 50.7734 104.696ZM63.8172 130.742C63.6145 130.414 63.3839 130.102 63.1281 129.812C56.004 123.859 51.4435 116.463 50.0749 107.226C49.8312 105.571 49.6531 104.045 47.5065 103.194C41.9055 100.971 37.5513 97.0078 34.1299 92.1381C32.1145 89.2684 30.4835 86.1381 28.6275 83.0405C28.4738 83.3827 28.3407 83.7337 28.2291 84.0916C26.5339 90.571 26.3816 97.3529 27.7839 103.901C29.34 110.994 31.5756 117.594 38.2827 121.975C45.9927 126.998 54.0824 130.426 63.8172 130.742ZM125.999 110.715C126.729 110.27 127.43 109.78 128.099 109.25C134.337 103.608 139.01 96.9195 141.4 88.8405C142.277 85.873 143.411 82.6545 143.055 79.7103C142.338 73.7848 140.069 68.2174 136.831 63.0872C133.967 58.557 130.592 54.5198 125.99 51.157C128.502 61.4267 127.865 71.0173 122.54 80.0591C122.226 80.594 122.451 81.7056 122.807 82.3335C127.888 91.2125 128.469 100.585 125.999 110.715ZM63.892 31.3758C63.0953 31.334 62.7297 31.2828 62.3688 31.2967C54.7029 31.6209 47.2842 34.0824 40.9635 38.399C37.8654 40.4967 34.233 42.6129 32.4286 45.6501C27.3151 54.264 25.9278 63.8639 27.348 73.7941C27.6011 75.5661 28.1542 77.2917 28.6744 79.4917C29.1431 78.5336 29.3915 78.0638 29.6118 77.5801C32.6958 70.2825 37.4764 64.2127 44.4084 60.4081C48.069 58.3988 49.9531 56.3244 50.6795 52.1431C52.1231 43.7478 57.0116 37.1525 63.892 31.3758ZM67.0136 30.1898C77.6952 31.1991 86.7879 34.5386 93.6824 42.5571C93.9964 42.9199 94.8777 43.0222 95.426 42.9245C101.644 41.5874 108.11 41.9426 114.141 43.9525C117.506 45.0966 120.703 46.7664 124.106 48.2641C120.825 39.4269 115.2 32.4502 107.593 27.1386C105.137 25.4177 102.358 23.5573 99.5177 23.1201C95.1495 22.4457 90.5703 22.655 86.1318 23.0131C79.2935 23.6038 73.0645 26.134 67.0136 30.1898ZM124.11 113.529C110.518 121.082 102.756 120.277 94.2401 118.784C88.2549 125.975 79.781 130.542 67.2059 131.808C67.7917 132.249 68.2322 132.645 68.7337 132.947C77.5405 138.282 87.1816 140.138 97.3523 139.398C99.4099 139.249 101.519 138.435 103.398 137.51C108.554 134.98 112.693 131.105 116.405 126.854C119.835 122.961 122.454 118.432 124.11 113.529ZM121.261 80.5056C118.448 78.101 115.941 75.4127 112.932 73.501C107.472 70.0313 101.547 68.8825 95.426 72.0499C91.414 74.1243 89.0424 78.6359 89.647 82.1056C91.0203 89.9893 99.349 92.6265 105.484 91.4311C112.069 90.1288 117 86.4544 121.261 80.487V80.5056ZM59.4394 105.445C65.7762 105.212 71.1569 103.319 75.1595 98.2543C78.1639 94.4404 78.5061 89.4172 76.0033 85.6963C73.6223 82.1568 68.9727 80.7521 64.2623 81.887C55.09 84.1056 50.0562 94.9799 50.7171 102.817C50.7593 103.315 51.6169 104.022 52.2028 104.152C54.5932 104.664 57.0257 105.012 59.4394 105.426V105.445ZM59.3834 56.5337C56.9696 56.9523 54.5323 57.2826 52.1513 57.85C51.5608 57.9942 50.7452 58.9012 50.7452 59.4547C50.7218 67.6592 53.6138 74.4545 60.9348 78.8219C65.8701 81.7661 71.9584 80.9661 75.3611 77.1615C78.642 73.4778 78.5013 67.9895 74.808 63.3383C70.885 58.4081 65.5045 56.7803 59.3834 56.5151V56.5337ZM99.3209 102.673C99.5975 99.5613 98.6834 96.6264 97.118 93.8358C94.1371 88.5149 87.6598 86.2916 82.7198 88.9335C78.5952 91.1381 76.3689 96.7241 77.5641 101.631C79.542 109.808 85.1053 114.538 92.7638 117.198C93.1543 117.268 93.556 117.241 93.9337 117.12C94.3113 116.999 94.6532 116.788 94.9292 116.505C97.6804 112.338 99.6115 107.896 99.3209 102.654V102.673ZM99.3537 58.5523C99.5693 55.1291 98.5053 51.4594 96.4946 48.1524C93.6824 43.5013 94.948 43.5013 89.858 45.9199C82.2698 49.5477 77.1468 55.2221 77.3858 64.1476C77.4936 68.2964 79.4528 71.7383 83.4789 73.3941C87.0363 74.8638 90.5563 74.4173 93.6966 71.9755C97.9195 68.6592 99.4427 64.2127 99.3537 58.5337V58.5523ZM96.0446 21.2224C74.7377 11.8318 45.627 22.2178 34.997 41.4083C35.2313 41.3013 35.4376 41.2223 35.6298 41.1153C35.8318 41.0034 36.0245 40.8759 36.2063 40.7339C44.4038 34.2223 53.6745 30.5758 64.253 30.3572C64.9918 30.2707 65.6949 29.9932 66.2918 29.5526C71.2881 26.2968 76.65 23.7759 82.5227 22.7154C87.1159 21.8643 91.8217 21.6503 96.0446 21.2038V21.2224ZM35.2032 121.222C48.861 143.324 79.0122 148.877 96.6493 140.375C85.3396 140.891 75.0425 138.403 65.8092 132.04C65.2134 131.717 64.537 131.568 63.8593 131.612C58.7519 131.681 53.6904 130.648 49.0251 128.584C44.1366 126.398 39.5574 123.552 35.2032 121.198V121.222ZM29.5461 113.45C29.5876 113.133 29.5876 112.813 29.5461 112.496C25.52 102.412 24.8873 92.1753 28.0604 81.7428C28.2385 81.1568 28.0181 80.4126 27.8494 79.7754C25.6559 71.5383 25.356 63.3011 27.737 55.0454C28.3416 52.9477 28.9697 50.8594 29.7384 48.2408C13.9667 67.1662 13.9807 95.3567 29.5461 113.45ZM104.369 138.054C131.155 131.766 146.13 105.575 143.449 85.2219C143.242 85.8591 143.017 86.4963 142.835 87.1428C140.28 96.1613 135.635 103.887 128.38 109.966C127.227 110.933 125.713 111.905 125.249 113.189C121.378 123.808 114.432 131.831 104.364 138.054H104.369ZM143.57 77.3522C145.829 51.4966 126.871 28.6828 104.542 24.0363C114.464 30.0828 121.476 38.1804 125.249 48.9292C125.474 49.571 126.233 50.0408 126.763 50.571C129.425 53.2547 132.322 55.7477 134.731 58.6454C139.104 63.9616 141.813 70.1801 143.566 77.3522H143.57ZM71.6161 80.7382C73.3222 82.2265 75.2205 83.3986 76.4251 85.0684C77.6296 86.7381 78.1685 88.9288 78.9981 90.8962C82.0915 87.1753 86.0803 86.2916 90.8938 87.4033C88.2035 83.1056 88.2362 78.9056 90.8563 74.6034C86.0568 75.6592 82.0261 74.6406 78.5109 70.5894C78.2906 75.8359 75.797 79.0498 71.6116 80.7382H71.6161Z" fill="black"/>
</svg>
