<svg width="30" height="30" viewBox="0 0 30 30" fill="none" xmlns="http://www.w3.org/2000/svg">
<path fill-rule="evenodd" clip-rule="evenodd" d="M15 2.5C8.09644 2.5 2.5 8.09644 2.5 15C2.5 21.9036 8.09644 27.5 15 27.5C21.9036 27.5 27.5 21.9036 27.5 15C27.5 11.6848 26.183 8.50537 23.8388 6.16117C21.4946 3.81696 18.3152 2.5 15 2.5ZM15 6.25C17.0711 6.25 18.75 7.92893 18.75 10C18.75 12.0711 17.0711 13.75 15 13.75C12.9289 13.75 11.25 12.0711 11.25 10C11.25 7.92893 12.9289 6.25 15 6.25ZM15 23.7335C17.7688 23.7335 20.3743 22.423 22.025 20.2C22.2808 19.8261 22.3143 19.3431 22.1125 18.9375L21.825 18.35C21.196 17.0663 19.892 16.2519 18.4625 16.25H11.5375C10.0877 16.2516 8.7686 17.0887 8.15 18.4L7.8875 18.95C7.69064 19.3523 7.72402 19.8291 7.975 20.2C9.6257 22.423 12.2312 23.7335 15 23.7335Z" fill="#5C4FEE"/>
</svg>
