<svg width="19" height="21" viewBox="0 0 19 21" fill="none" xmlns="http://www.w3.org/2000/svg">
<path d="M12.3516 10.0312C12.3516 9.40625 11.8828 8.89844 11.3359 8.89844C10.75 8.89844 10.2812 9.40625 10.2812 10.0312C10.2812 10.6172 10.75 11.125 11.3359 11.125C11.8828 11.125 12.3516 10.6172 12.3516 10.0312ZM7.66406 8.89844C7.11719 8.89844 6.64844 9.40625 6.64844 10.0312C6.64844 10.6172 7.11719 11.125 7.66406 11.125C8.25 11.125 8.67969 10.6172 8.67969 10.0312C8.71875 9.40625 8.25 8.89844 7.66406 8.89844ZM18.25 2.57031C18.25 1.4375 17.3125 0.5 16.1797 0.5H2.78125C1.64844 0.5 0.75 1.4375 0.75 2.57031V16.0859C0.75 17.2578 1.64844 18.1562 2.78125 18.1562H14.1094L13.6016 16.3203C16.5312 19.0156 15.7109 18.3125 18.25 20.5V2.57031ZM15.3984 12.0625C15.3984 12.0625 14.5391 13.5078 12.3125 13.5859C12.3125 13.5859 11.9609 13.1562 11.6484 12.7656C12.9766 12.4141 13.4844 11.5938 13.4844 11.5938C13.0547 11.8672 12.6641 12.0234 12.3125 12.1797C10.1641 13.0781 7.78125 12.7656 6.0625 11.8281C6.0625 11.7891 5.82812 11.6719 5.67188 11.5547C5.67188 11.5547 6.14062 12.375 7.42969 12.7656C7.11719 13.1172 6.76562 13.5859 6.76562 13.5859C4.53906 13.5078 3.71875 12.0625 3.71875 12.0625C3.71875 8.82031 5.125 6.24219 5.125 6.24219C6.57031 5.14844 7.9375 5.1875 7.9375 5.1875L8.05469 5.30469C6.25781 5.8125 5.4375 6.59375 5.4375 6.59375C5.4375 6.59375 5.63281 6.47656 6.02344 6.32031C8.32812 5.30469 11.1016 5.30469 13.4844 6.59375C13.4844 6.59375 12.7031 5.85156 10.9844 5.34375L11.1406 5.1875C11.1406 5.1875 12.5078 5.14844 13.9531 6.24219C13.9531 6.24219 15.3984 8.82031 15.3984 12.0625Z" fill="white"/>
</svg>
