<svg width="411" height="412" viewBox="0 0 411 412" fill="none" xmlns="http://www.w3.org/2000/svg">
<circle cx="213.5" cy="117.5" r="117" stroke="#A260F3"/>
<circle cx="213.5" cy="294.5" r="117" stroke="#A260F3"/>
<circle cx="117.5" cy="177.5" r="117" stroke="#A260F3"/>
<circle cx="293.5" cy="177.5" r="117" stroke="#A260F3"/>
<circle cx="117.5" cy="244.5" r="117" stroke="#A260F3"/>
<circle cx="293.5" cy="244.5" r="117" stroke="#A260F3"/>
<circle cx="203.895" cy="203.791" r="119.845" fill="#A260F3"/>
<path d="M140.383 245.452V196.435L181.122 245.289L140.383 245.452Z" fill="#0C1F30"/>
<path d="M168.582 245.452V182.761L220.686 245.245L168.582 245.452Z" fill="white"/>
<path d="M267.868 245.452V196.435L227.13 245.289L267.868 245.452Z" fill="#0C1F30"/>
<path d="M239.681 245.452V182.761L187.576 245.245L239.681 245.452Z" fill="#0C1F30"/>
<path d="M218.545 178.091L204.126 202.659L189.717 178.091L204.126 153.534L218.545 178.091Z" fill="#0C1F30"/>
<path d="M204.126 153.534L218.545 178.091L204.126 202.659" fill="white"/>
</svg>
