<svg width="33" height="32" viewBox="0 0 33 32" fill="none" xmlns="http://www.w3.org/2000/svg">
<path d="M7.46495 15.2359C7.46492 15.0573 7.50019 14.8804 7.56872 14.7154C7.63726 14.5505 7.73771 14.4007 7.86431 14.2746C7.99091 14.1486 8.14117 14.0488 8.30645 13.981C8.47173 13.9132 8.64877 13.8787 8.82741 13.8796L11.0862 13.887C11.4464 13.887 11.7918 14.0301 12.0465 14.2847C12.3011 14.5394 12.4442 14.8848 12.4442 15.245V23.7864C12.6987 23.711 13.025 23.6306 13.3825 23.5467C13.6307 23.4883 13.852 23.3478 14.0103 23.1479C14.1687 22.948 14.2548 22.7005 14.2549 22.4455V11.8506C14.2549 11.4904 14.3979 11.1449 14.6526 10.8902C14.9073 10.6355 15.2527 10.4923 15.6129 10.4923H17.8763C18.2365 10.4924 18.5819 10.6355 18.8366 10.8902C19.0912 11.145 19.2343 11.4904 19.2343 11.8506V21.6841C19.2343 21.6841 19.8007 21.4547 20.3529 21.2217C20.5579 21.135 20.7328 20.9898 20.8559 20.8043C20.979 20.6187 21.0447 20.4011 21.0449 20.1785V8.45502C21.0449 8.2767 21.08 8.10012 21.1482 7.93537C21.2164 7.77062 21.3164 7.62092 21.4425 7.49482C21.5686 7.36871 21.7183 7.26868 21.883 7.20043C22.0478 7.13218 22.2243 7.09704 22.4026 7.09703H24.666C25.0262 7.09703 25.3716 7.2401 25.6263 7.49477C25.881 7.74944 26.0241 8.09484 26.0241 8.45502V18.1087C27.9863 16.6866 29.975 14.9761 31.5532 12.9195C31.7821 12.621 31.9336 12.2704 31.9942 11.8991C32.0547 11.5277 32.0224 11.1472 31.9001 10.7914C30.8323 7.67948 28.8294 4.97334 26.1652 3.04299C23.501 1.11264 20.3056 0.052306 17.0159 0.0069737C8.14498 -0.112192 0.813658 7.12916 0.81453 16.0011C0.80582 18.8085 1.53854 21.5685 2.9386 24.0018C3.13168 24.3347 3.41574 24.6055 3.75739 24.7825C4.09905 24.9595 4.48412 25.0353 4.86737 25.001C5.29556 24.9633 5.82865 24.9101 6.46239 24.8357C6.73823 24.8043 6.99289 24.6725 7.17786 24.4655C7.36284 24.2585 7.46522 23.9907 7.4655 23.7131V15.2359" fill="white" fill-opacity="0.6"/>
<path d="M7.41564 28.9344C9.80135 30.6699 12.6207 31.7117 15.5617 31.9444C18.5027 32.1771 21.4508 31.5916 24.0797 30.2529C26.7087 28.9141 28.916 26.8741 30.4576 24.3587C31.9991 21.8433 32.8148 18.9505 32.8143 16.0003C32.8143 15.632 32.7972 15.2679 32.7726 14.9057C26.9296 23.6198 16.141 27.6942 7.41553 28.9347" fill="#BFCFDA"/>
</svg>
