<svg width="603" height="602" viewBox="0 0 603 602" fill="none" xmlns="http://www.w3.org/2000/svg">
<rect x="24.9048" width="576.819" height="576.819" fill="black"/>
<rect x="0.352304" y="25.2568" width="576.114" height="576.114" stroke="black" stroke-width="0.704607"/>
<path d="M519.917 251.891C519.917 270.208 520.436 288.526 519.807 306.812C518.438 347.272 504.321 383.017 478.038 413.998C451.11 445.73 417.084 465.078 376.054 473.338C363.841 475.79 352.526 482.505 340.376 485.597C283.577 500.057 232.271 487.923 186.142 452.803C167.508 438.593 153.344 420.666 141.383 400.694C136.52 392.605 129.28 385.952 123.678 378.254C106.644 354.833 95.9575 327.464 92.6424 298.769C86.9137 252.406 97.6309 210.244 125.582 172.781C141.603 151.294 157.341 129.307 175.818 110.006C200.165 84.5678 231.736 71.0758 266.517 64.6265C303.581 57.7555 338.598 63.8925 372.702 78.6807C379.422 81.6008 387.15 82.1006 394.169 84.4273C461.434 106.727 502.652 152.169 516.801 221.268C518.862 231.325 519.602 241.569 520.956 251.86L519.917 251.891ZM200.543 201.436C166.989 216.068 145.46 240.476 133.53 273.409C132.6 276.469 132.887 279.767 134.332 282.623C141.808 295.771 148.686 309.513 157.94 321.334C168.799 335.17 183.483 344.992 200.559 351.473C201.944 317.587 213.936 290.727 247.049 276.517C213.7 262.229 202.07 235.416 200.543 201.436ZM290.014 217.692C294.027 181.776 316.171 162.366 347.71 150.544C326.18 125.84 299.08 113.519 267.666 109.943C260.616 109.131 253.502 108.694 247.207 114.535C230.886 129.791 217.115 146.672 210.222 168.144C207.263 177.357 205.39 186.882 202.746 197.407C237.15 188.007 266.249 190.864 290.014 217.692ZM359.655 240.382C395.507 231.715 420.609 247.956 441.982 273.316C457.72 250.001 460.427 224.142 458.444 197.564C457.342 182.76 454.21 168.471 436.788 163.209C430.871 161.429 425.488 158.024 419.618 156.057C397.962 148.796 376.039 145.953 353.172 152.762C372.136 180.87 378.509 209.603 359.655 240.382ZM359.655 312.808C376.495 343.337 374.921 364.574 353.124 401.162C361.371 402.286 369.161 404.145 376.999 404.285C403.36 404.629 427.455 396.79 449.394 382.501C451.485 381.121 453.044 379.079 453.817 376.708C462.803 343.071 460.883 310.653 442.171 279.749C420.641 305.078 395.554 321.553 359.655 312.808ZM204.556 356.251C204.311 359.093 204.311 361.951 204.556 364.793C209.702 393.479 223.678 417.246 245.318 436.782C250.338 441.295 255.422 444.699 262.63 443.403C272.277 441.685 282.24 441.154 291.572 438.437C313.606 432.019 332.492 420.588 347.506 402.521C315.746 390.59 293.728 371.133 289.951 335.56C266.438 362.341 237.15 365.324 204.556 356.251V356.251ZM248.355 443.7C247.675 442.595 246.901 441.55 246.042 440.576C222.12 420.588 206.806 395.759 202.211 364.746C201.392 359.187 200.794 354.065 193.586 351.207C174.779 343.743 160.158 330.438 148.67 314.089C141.902 304.454 136.426 293.944 130.193 283.544C129.677 284.693 129.23 285.872 128.855 287.073C123.163 308.827 122.652 331.597 127.361 353.581C132.586 377.395 140.093 399.554 162.614 414.264C188.503 431.129 215.667 442.638 248.355 443.7V443.7ZM457.153 376.458C459.603 374.964 461.958 373.321 464.204 371.539C485.151 352.597 500.842 330.142 508.869 303.017C511.812 293.054 515.621 282.248 514.425 272.363C512.017 252.469 504.399 233.777 493.524 216.552C483.908 201.343 472.577 187.788 457.122 176.498C465.557 210.978 463.417 243.177 445.539 273.534C444.484 275.33 445.239 279.062 446.436 281.17C463.496 310.981 465.447 342.447 457.153 376.458V376.458ZM248.607 110.084C245.931 109.944 244.704 109.772 243.492 109.819C217.751 110.907 192.84 119.171 171.616 133.664C161.213 140.707 149.016 147.812 142.957 158.009C125.786 186.929 121.128 219.16 125.897 252.5C126.747 258.45 128.604 264.243 130.351 271.629C131.925 268.412 132.759 266.835 133.499 265.211C143.854 240.71 159.907 220.331 183.184 207.558C195.475 200.812 201.802 193.847 204.241 179.808C209.088 151.622 225.503 129.479 248.607 110.084ZM259.089 106.102C294.956 109.491 325.488 120.703 348.638 147.624C349.693 148.842 352.652 149.186 354.493 148.858C375.372 144.369 397.085 145.561 417.336 152.309C428.636 156.151 439.369 161.757 450.795 166.785C439.778 137.115 420.893 113.691 395.35 95.858C387.103 90.0802 377.77 83.8339 368.233 82.366C353.565 80.1018 338.189 80.8044 323.285 82.0068C300.323 83.99 279.407 92.485 259.089 106.102ZM450.81 385.906C405.17 411.266 379.107 408.564 350.511 403.551C330.414 427.693 301.96 443.028 259.734 447.276C261.701 448.759 263.18 450.086 264.864 451.101C294.436 469.013 326.81 475.243 360.962 472.76C367.871 472.261 374.953 469.528 381.264 466.42C398.576 457.925 412.472 444.918 424.937 430.645C436.457 417.575 445.251 402.369 450.81 385.906V385.906ZM441.242 275.033C431.799 266.96 423.379 257.934 413.276 251.516C394.941 239.867 375.047 236.01 354.493 246.644C341.022 253.609 333.058 268.756 335.088 280.405C339.699 306.874 367.666 315.728 388.267 311.715C410.379 307.343 426.936 295.006 441.242 274.971V275.033ZM233.656 358.765C254.933 357.984 273.001 351.629 286.441 334.623C296.529 321.818 297.679 304.953 289.275 292.461C281.28 280.577 265.667 275.861 249.85 279.671C219.051 287.12 202.148 323.63 204.367 349.942C204.509 351.613 207.389 353.987 209.356 354.424C217.382 356.142 225.55 357.313 233.656 358.703V358.765ZM233.467 194.55C225.362 195.955 217.178 197.064 209.183 198.969C207.2 199.453 204.462 202.498 204.462 204.356C204.383 231.903 214.094 254.717 238.677 269.381C255.249 279.265 275.692 276.579 287.118 263.806C298.135 251.438 297.663 233.011 285.261 217.396C272.088 200.843 254.021 195.377 233.467 194.487V194.55ZM367.572 349.458C368.5 339.011 365.431 329.158 360.175 319.788C350.165 301.924 328.416 294.46 311.828 303.329C297.978 310.731 290.502 329.486 294.516 345.96C301.157 373.413 319.838 389.294 345.554 398.226C346.865 398.46 348.214 398.37 349.482 397.964C350.75 397.559 351.898 396.849 352.825 395.9C362.063 381.908 368.548 366.995 367.572 349.396V349.458ZM367.682 201.327C368.406 189.834 364.833 177.513 358.081 166.41C348.638 150.794 352.888 150.794 335.797 158.915C310.317 171.095 293.114 190.146 293.917 220.113C294.279 234.042 300.857 245.598 314.377 251.157C326.322 256.092 338.142 254.592 348.686 246.394C362.866 235.26 367.981 220.331 367.682 201.265V201.327ZM356.571 75.9948C285.025 44.4665 187.275 79.3366 151.581 143.767C152.368 143.408 153.061 143.143 153.706 142.783C154.384 142.408 155.031 141.98 155.642 141.503C183.168 119.641 214.298 107.398 249.819 106.664C252.3 106.374 254.66 105.442 256.665 103.963C273.442 93.0316 291.446 84.5679 311.166 81.0075C326.589 78.1498 342.391 77.4315 356.571 75.9324V75.9948ZM152.274 411.734C198.135 485.94 299.378 504.585 358.601 476.04C320.625 477.773 286.048 469.419 255.044 448.056C253.044 446.97 250.772 446.472 248.497 446.62C231.347 446.852 214.351 443.383 198.686 436.454C182.271 429.114 166.894 419.558 152.274 411.656V411.734ZM133.278 385.64C133.417 384.577 133.417 383.501 133.278 382.439C119.759 348.584 117.634 314.213 128.289 279.187C128.887 277.22 128.147 274.721 127.581 272.582C120.215 244.926 119.208 217.271 127.203 189.553C129.234 182.51 131.342 175.499 133.924 166.707C80.9647 230.247 81.0116 324.895 133.278 385.64ZM384.522 468.248C474.465 447.135 524.749 359.203 515.746 290.868C515.054 293.007 514.298 295.147 513.685 297.317C505.107 327.596 489.511 353.534 465.148 373.944C461.277 377.192 456.193 380.456 454.635 384.766C441.635 420.416 418.311 447.354 384.506 468.248H384.522ZM516.155 264.446C523.741 177.638 460.08 101.042 385.104 85.4423C418.421 105.743 441.966 132.93 454.635 169.018C455.39 171.173 457.94 172.75 459.718 174.53C468.658 183.541 478.384 191.911 486.473 201.639C501.157 219.488 510.254 240.366 516.14 264.446H516.155ZM274.543 275.814C280.272 280.811 286.646 284.746 290.691 290.353C294.736 295.959 296.545 303.314 299.331 309.919C309.718 297.427 323.112 294.46 339.275 298.192C330.241 283.763 330.351 269.662 339.149 255.217C323.033 258.762 309.498 255.342 297.695 241.741C296.955 259.355 288.582 270.146 274.528 275.814H274.543Z" fill="white"/>
<path d="M65.9048 288.409L25.505 288.409" stroke="white" stroke-width="1.40921"/>
<path d="M602.639 288.409L562.239 288.409" stroke="white" stroke-width="1.40921"/>
<path d="M320.151 0.168365V40.5681" stroke="white" stroke-width="1.40921"/>
<path d="M313.314 536.903V577.302" stroke="white" stroke-width="1.40921"/>
</svg>
