<svg width="18" height="19" viewBox="0 0 18 19" fill="none" xmlns="http://www.w3.org/2000/svg">
<path d="M9 5.00781C6.5 5.00781 4.50781 7.03906 4.50781 9.5C4.50781 12 6.5 13.9922 9 13.9922C11.4609 13.9922 13.4922 12 13.4922 9.5C13.4922 7.03906 11.4609 5.00781 9 5.00781ZM9 12.4297C7.39844 12.4297 6.07031 11.1406 6.07031 9.5C6.07031 7.89844 7.35938 6.60938 9 6.60938C10.6016 6.60938 11.8906 7.89844 11.8906 9.5C11.8906 11.1406 10.6016 12.4297 9 12.4297ZM14.7031 4.85156C14.7031 4.26562 14.2344 3.79688 13.6484 3.79688C13.0625 3.79688 12.5938 4.26562 12.5938 4.85156C12.5938 5.4375 13.0625 5.90625 13.6484 5.90625C14.2344 5.90625 14.7031 5.4375 14.7031 4.85156ZM17.6719 5.90625C17.5938 4.5 17.2812 3.25 16.2656 2.23438C15.25 1.21875 14 0.90625 12.5938 0.828125C11.1484 0.75 6.8125 0.75 5.36719 0.828125C3.96094 0.90625 2.75 1.21875 1.69531 2.23438C0.679688 3.25 0.367188 4.5 0.289062 5.90625C0.210938 7.35156 0.210938 11.6875 0.289062 13.1328C0.367188 14.5391 0.679688 15.75 1.69531 16.8047C2.75 17.8203 3.96094 18.1328 5.36719 18.2109C6.8125 18.2891 11.1484 18.2891 12.5938 18.2109C14 18.1328 15.25 17.8203 16.2656 16.8047C17.2812 15.75 17.5938 14.5391 17.6719 13.1328C17.75 11.6875 17.75 7.35156 17.6719 5.90625ZM15.7969 14.6562C15.5234 15.4375 14.8984 16.0234 14.1562 16.3359C12.9844 16.8047 10.25 16.6875 9 16.6875C7.71094 16.6875 4.97656 16.8047 3.84375 16.3359C3.0625 16.0234 2.47656 15.4375 2.16406 14.6562C1.69531 13.5234 1.8125 10.7891 1.8125 9.5C1.8125 8.25 1.69531 5.51562 2.16406 4.34375C2.47656 3.60156 3.0625 3.01562 3.84375 2.70312C4.97656 2.23438 7.71094 2.35156 9 2.35156C10.25 2.35156 12.9844 2.23438 14.1562 2.70312C14.8984 2.97656 15.4844 3.60156 15.7969 4.34375C16.2656 5.51562 16.1484 8.25 16.1484 9.5C16.1484 10.7891 16.2656 13.5234 15.7969 14.6562Z" fill="white"/>
</svg>
