<svg width="24" height="24" viewBox="0 0 24 24" fill="none" xmlns="http://www.w3.org/2000/svg">
<g clip-path="url(#clip0_31_504)">
<path d="M22.4163 18.9678C20.0268 22.9634 15.5865 24.6792 11.8936 23.7536C12.4258 23.4961 12.9798 23.2653 13.4838 22.9767C14.6954 22.3122 15.6989 21.312 16.3794 20.091C17.1289 18.7303 17.4439 17.2808 17.0203 15.727C16.9573 15.505 16.9095 15.283 17.2375 15.1809C19.7748 14.4173 21.0196 12.5017 21.5214 9.95782C21.7121 8.90268 21.7039 7.82007 21.4975 6.76803C21.4866 6.70588 21.4844 6.63929 21.4736 6.5061C24.1586 9.4828 25.0666 14.5372 22.4163 18.9678Z" fill="white"/>
<path d="M1.19711 18.3352C-0.923097 14.222 -0.0780913 9.45618 2.57433 6.68149C2.51785 7.27638 2.43313 7.87127 2.41141 8.46839C2.34519 9.86247 2.66519 11.2474 3.33465 12.4639C4.08411 13.7958 5.13122 14.8102 6.641 15.2187C6.85823 15.2808 7.07543 15.3452 6.98637 15.6826C6.33467 18.2975 7.29049 20.3441 9.15871 22.0733C9.94069 22.7703 10.8462 23.3076 11.8263 23.656C11.8849 23.6782 11.9415 23.7092 12.0588 23.7669C8.20942 24.6326 3.54106 22.8857 1.19711 18.3352Z" fill="white"/>
<path d="M12.3562 0.00219824C16.9051 0.0998675 20.5698 3.16535 21.6625 6.88344C21.178 6.54382 20.7132 6.17756 20.2135 5.86901C19.0522 5.13518 17.7121 4.75053 16.3467 4.75913C14.8261 4.77689 13.4662 5.22528 12.3844 6.37733C12.2236 6.54825 12.0672 6.69921 11.8196 6.45947C9.9014 4.60598 7.67692 4.46168 5.30256 5.29853C4.32621 5.65782 3.42704 6.20655 2.65449 6.91452C2.6067 6.9567 2.55239 6.99221 2.43726 7.06769C3.56035 3.21419 7.32505 -0.111009 12.3562 0.00219824Z" fill="white"/>
</g>
<defs>
<clipPath id="clip0_31_504">
<rect width="24" height="24" fill="white"/>
</clipPath>
</defs>
</svg>
