<svg width="102" height="35" viewBox="0 0 102 35" fill="none" xmlns="http://www.w3.org/2000/svg">
<g clip-path="url(#clip0_1005_434)">
<path d="M22.4163 22.9678C20.0268 26.9634 15.5865 28.6792 11.8936 27.7536C12.4258 27.4961 12.9798 27.2653 13.4838 26.9767C14.6954 26.3122 15.6989 25.312 16.3794 24.091C17.1289 22.7303 17.4439 21.2808 17.0203 19.727C16.9573 19.505 16.9095 19.283 17.2375 19.1809C19.7748 18.4173 21.0196 16.5017 21.5214 13.9578C21.7121 12.9027 21.7039 11.8201 21.4975 10.768C21.4866 10.7059 21.4844 10.6393 21.4736 10.5061C24.1586 13.4828 25.0666 18.5372 22.4163 22.9678Z" fill="white"/>
<path d="M1.19711 22.3352C-0.923097 18.222 -0.0780913 13.4562 2.57433 10.6815C2.51785 11.2764 2.43313 11.8713 2.41141 12.4684C2.34519 13.8625 2.66519 15.2474 3.33465 16.4639C4.08411 17.7958 5.13122 18.8102 6.641 19.2187C6.85823 19.2808 7.07543 19.3452 6.98637 19.6826C6.33467 22.2975 7.29049 24.3441 9.15871 26.0733C9.94069 26.7703 10.8462 27.3076 11.8263 27.656C11.8849 27.6782 11.9415 27.7092 12.0588 27.7669C8.20942 28.6326 3.54106 26.8857 1.19711 22.3352Z" fill="white"/>
<path d="M12.3562 4.0022C16.9051 4.09987 20.5698 7.16535 21.6625 10.8834C21.178 10.5438 20.7132 10.1776 20.2135 9.86901C19.0522 9.13518 17.7121 8.75053 16.3467 8.75913C14.8261 8.77689 13.4662 9.22528 12.3844 10.3773C12.2236 10.5483 12.0672 10.6992 11.8196 10.4595C9.9014 8.60598 7.67692 8.46168 5.30256 9.29853C4.32621 9.65782 3.42704 10.2065 2.65449 10.9145C2.6067 10.9567 2.55239 10.9922 2.43726 11.0677C3.56035 7.21419 7.32505 3.88899 12.3562 4.0022Z" fill="white"/>
</g>
<path d="M41.112 6.692C41.416 6.74 41.692 6.864 41.94 7.064C42.196 7.264 42.396 7.512 42.54 7.808C42.692 8.104 42.768 8.42 42.768 8.756C42.768 9.18 42.66 9.564 42.444 9.908C42.228 10.244 41.912 10.512 41.496 10.712C41.088 10.904 40.604 11 40.044 11H36.924V2.636H39.924C40.492 2.636 40.976 2.732 41.376 2.924C41.776 3.108 42.076 3.36 42.276 3.68C42.476 4 42.576 4.36 42.576 4.76C42.576 5.256 42.44 5.668 42.168 5.996C41.904 6.316 41.552 6.548 41.112 6.692ZM38.016 6.248H39.852C40.364 6.248 40.76 6.128 41.04 5.888C41.32 5.648 41.46 5.316 41.46 4.892C41.46 4.468 41.32 4.136 41.04 3.896C40.76 3.656 40.356 3.536 39.828 3.536H38.016V6.248ZM39.948 10.1C40.492 10.1 40.916 9.972 41.22 9.716C41.524 9.46 41.676 9.104 41.676 8.648C41.676 8.184 41.516 7.82 41.196 7.556C40.876 7.284 40.448 7.148 39.912 7.148H38.016V10.1H39.948ZM45.3754 2.12V11H44.2834V2.12H45.3754ZM50.1045 11.108C49.4885 11.108 48.9285 10.968 48.4245 10.688C47.9285 10.408 47.5365 10.012 47.2485 9.5C46.9685 8.98 46.8285 8.38 46.8285 7.7C46.8285 7.028 46.9725 6.436 47.2605 5.924C47.5565 5.404 47.9565 5.008 48.4605 4.736C48.9645 4.456 49.5285 4.316 50.1525 4.316C50.7765 4.316 51.3405 4.456 51.8445 4.736C52.3485 5.008 52.7445 5.4 53.0325 5.912C53.3285 6.424 53.4765 7.02 53.4765 7.7C53.4765 8.38 53.3245 8.98 53.0205 9.5C52.7245 10.012 52.3205 10.408 51.8085 10.688C51.2965 10.968 50.7285 11.108 50.1045 11.108ZM50.1045 10.148C50.4965 10.148 50.8645 10.056 51.2085 9.872C51.5525 9.688 51.8285 9.412 52.0365 9.044C52.2525 8.676 52.3605 8.228 52.3605 7.7C52.3605 7.172 52.2565 6.724 52.0485 6.356C51.8405 5.988 51.5685 5.716 51.2325 5.54C50.8965 5.356 50.5325 5.264 50.1405 5.264C49.7405 5.264 49.3725 5.356 49.0365 5.54C48.7085 5.716 48.4445 5.988 48.2445 6.356C48.0445 6.724 47.9445 7.172 47.9445 7.7C47.9445 8.236 48.0405 8.688 48.2325 9.056C48.4325 9.424 48.6965 9.7 49.0245 9.884C49.3525 10.06 49.7125 10.148 50.1045 10.148ZM54.5043 7.7C54.5043 7.02 54.6403 6.428 54.9123 5.924C55.1843 5.412 55.5603 5.016 56.0403 4.736C56.5283 4.456 57.0843 4.316 57.7083 4.316C58.5163 4.316 59.1803 4.512 59.7003 4.904C60.2283 5.296 60.5763 5.84 60.7443 6.536H59.5683C59.4563 6.136 59.2363 5.82 58.9083 5.588C58.5883 5.356 58.1883 5.24 57.7083 5.24C57.0843 5.24 56.5803 5.456 56.1963 5.888C55.8123 6.312 55.6203 6.916 55.6203 7.7C55.6203 8.492 55.8123 9.104 56.1963 9.536C56.5803 9.968 57.0843 10.184 57.7083 10.184C58.1883 10.184 58.5883 10.072 58.9083 9.848C59.2283 9.624 59.4483 9.304 59.5683 8.888H60.7443C60.5683 9.56 60.2163 10.1 59.6883 10.508C59.1603 10.908 58.5003 11.108 57.7083 11.108C57.0843 11.108 56.5283 10.968 56.0403 10.688C55.5603 10.408 55.1843 10.012 54.9123 9.5C54.6403 8.988 54.5043 8.388 54.5043 7.7ZM65.8733 11L63.2933 8.096V11H62.2013V2.12H63.2933V7.34L65.8253 4.424H67.3493L64.2533 7.7L67.3613 11H65.8733ZM67.9691 7.7C67.9691 7.02 68.1051 6.428 68.3771 5.924C68.6491 5.412 69.0251 5.016 69.5051 4.736C69.9931 4.456 70.5491 4.316 71.1731 4.316C71.9811 4.316 72.6451 4.512 73.1651 4.904C73.6931 5.296 74.0411 5.84 74.2091 6.536H73.0331C72.9211 6.136 72.7011 5.82 72.3731 5.588C72.0531 5.356 71.6531 5.24 71.1731 5.24C70.5491 5.24 70.0451 5.456 69.6611 5.888C69.2771 6.312 69.0851 6.916 69.0851 7.7C69.0851 8.492 69.2771 9.104 69.6611 9.536C70.0451 9.968 70.5491 10.184 71.1731 10.184C71.6531 10.184 72.0531 10.072 72.3731 9.848C72.6931 9.624 72.9131 9.304 73.0331 8.888H74.2091C74.0331 9.56 73.6811 10.1 73.1531 10.508C72.6251 10.908 71.9651 11.108 71.1731 11.108C70.5491 11.108 69.9931 10.968 69.5051 10.688C69.0251 10.408 68.6491 10.012 68.3771 9.5C68.1051 8.988 67.9691 8.388 67.9691 7.7ZM78.9302 4.304C79.4262 4.304 79.8742 4.412 80.2742 4.628C80.6742 4.836 80.9862 5.152 81.2102 5.576C81.4422 6 81.5582 6.516 81.5582 7.124V11H80.4782V7.28C80.4782 6.624 80.3142 6.124 79.9862 5.78C79.6582 5.428 79.2102 5.252 78.6422 5.252C78.0662 5.252 77.6062 5.432 77.2622 5.792C76.9262 6.152 76.7582 6.676 76.7582 7.364V11H75.6662V2.12H76.7582V5.36C76.9742 5.024 77.2702 4.764 77.6462 4.58C78.0302 4.396 78.4582 4.304 78.9302 4.304ZM82.934 7.688C82.934 7.016 83.07 6.428 83.342 5.924C83.614 5.412 83.986 5.016 84.458 4.736C84.938 4.456 85.47 4.316 86.054 4.316C86.63 4.316 87.13 4.44 87.554 4.688C87.978 4.936 88.294 5.248 88.502 5.624V4.424H89.606V11H88.502V9.776C88.286 10.16 87.962 10.48 87.53 10.736C87.106 10.984 86.61 11.108 86.042 11.108C85.458 11.108 84.93 10.964 84.458 10.676C83.986 10.388 83.614 9.984 83.342 9.464C83.07 8.944 82.934 8.352 82.934 7.688ZM88.502 7.7C88.502 7.204 88.402 6.772 88.202 6.404C88.002 6.036 87.73 5.756 87.386 5.564C87.05 5.364 86.678 5.264 86.27 5.264C85.862 5.264 85.49 5.36 85.154 5.552C84.818 5.744 84.55 6.024 84.35 6.392C84.15 6.76 84.05 7.192 84.05 7.688C84.05 8.192 84.15 8.632 84.35 9.008C84.55 9.376 84.818 9.66 85.154 9.86C85.49 10.052 85.862 10.148 86.27 10.148C86.678 10.148 87.05 10.052 87.386 9.86C87.73 9.66 88.002 9.376 88.202 9.008C88.402 8.632 88.502 8.196 88.502 7.7ZM92.0153 3.356C91.8073 3.356 91.6313 3.284 91.4873 3.14C91.3433 2.996 91.2713 2.82 91.2713 2.612C91.2713 2.404 91.3433 2.228 91.4873 2.084C91.6313 1.94 91.8073 1.868 92.0153 1.868C92.2153 1.868 92.3833 1.94 92.5193 2.084C92.6633 2.228 92.7353 2.404 92.7353 2.612C92.7353 2.82 92.6633 2.996 92.5193 3.14C92.3833 3.284 92.2153 3.356 92.0153 3.356ZM92.5433 4.424V11H91.4513V4.424H92.5433ZM97.6085 4.304C98.4085 4.304 99.0565 4.548 99.5525 5.036C100.048 5.516 100.296 6.212 100.296 7.124V11H99.2165V7.28C99.2165 6.624 99.0525 6.124 98.7245 5.78C98.3965 5.428 97.9485 5.252 97.3805 5.252C96.8045 5.252 96.3445 5.432 96.0005 5.792C95.6645 6.152 95.4965 6.676 95.4965 7.364V11H94.4045V4.424H95.4965V5.36C95.7125 5.024 96.0045 4.764 96.3725 4.58C96.7485 4.396 97.1605 4.304 97.6085 4.304Z" fill="white"/>
<path d="M36.462 24.072C36.462 23.1013 36.672 22.238 37.092 21.482C37.512 20.7167 38.0953 20.124 38.842 19.704C39.598 19.2747 40.452 19.06 41.404 19.06C42.5707 19.06 43.5693 19.368 44.4 19.984C45.2307 20.6 45.786 21.44 46.066 22.504H43.434C43.238 22.0933 42.958 21.7807 42.594 21.566C42.2393 21.3513 41.8333 21.244 41.376 21.244C40.6387 21.244 40.0413 21.5007 39.584 22.014C39.1267 22.5273 38.898 23.2133 38.898 24.072C38.898 24.9307 39.1267 25.6167 39.584 26.13C40.0413 26.6433 40.6387 26.9 41.376 26.9C41.8333 26.9 42.2393 26.7927 42.594 26.578C42.958 26.3633 43.238 26.0507 43.434 25.64H46.066C45.786 26.704 45.2307 27.544 44.4 28.16C43.5693 28.7667 42.5707 29.07 41.404 29.07C40.452 29.07 39.598 28.86 38.842 28.44C38.0953 28.0107 37.512 27.418 37.092 26.662C36.672 25.906 36.462 25.0427 36.462 24.072ZM52.3341 21.104C53.2301 21.104 53.9487 21.4027 54.4901 22C55.0314 22.588 55.3021 23.4 55.3021 24.436V29H52.9221V24.758C52.9221 24.2353 52.7867 23.8293 52.5161 23.54C52.2454 23.2507 51.8814 23.106 51.4241 23.106C50.9667 23.106 50.6027 23.2507 50.3321 23.54C50.0614 23.8293 49.9261 24.2353 49.9261 24.758V29H47.5321V18.64H49.9261V22.238C50.1687 21.8927 50.5001 21.6173 50.9201 21.412C51.3401 21.2067 51.8114 21.104 52.3341 21.104ZM60.5217 29.112C59.7563 29.112 59.0657 28.9487 58.4497 28.622C57.843 28.2953 57.3623 27.8287 57.0077 27.222C56.6623 26.6153 56.4897 25.906 56.4897 25.094C56.4897 24.2913 56.667 23.5867 57.0217 22.98C57.3763 22.364 57.8617 21.8927 58.4777 21.566C59.0937 21.2393 59.7843 21.076 60.5497 21.076C61.315 21.076 62.0057 21.2393 62.6217 21.566C63.2377 21.8927 63.723 22.364 64.0777 22.98C64.4323 23.5867 64.6097 24.2913 64.6097 25.094C64.6097 25.8967 64.4277 26.606 64.0637 27.222C63.709 27.8287 63.219 28.2953 62.5937 28.622C61.9777 28.9487 61.287 29.112 60.5217 29.112ZM60.5217 27.04C60.979 27.04 61.3663 26.872 61.6837 26.536C62.0103 26.2 62.1737 25.7193 62.1737 25.094C62.1737 24.4687 62.015 23.988 61.6977 23.652C61.3897 23.316 61.007 23.148 60.5497 23.148C60.083 23.148 59.6957 23.316 59.3877 23.652C59.0797 23.9787 58.9257 24.4593 58.9257 25.094C58.9257 25.7193 59.075 26.2 59.3737 26.536C59.6817 26.872 60.0643 27.04 60.5217 27.04ZM67.0837 20.376C66.6637 20.376 66.3184 20.2547 66.0477 20.012C65.7864 19.76 65.6557 19.452 65.6557 19.088C65.6557 18.7147 65.7864 18.4067 66.0477 18.164C66.3184 17.912 66.6637 17.786 67.0837 17.786C67.4944 17.786 67.8304 17.912 68.0917 18.164C68.3624 18.4067 68.4977 18.7147 68.4977 19.088C68.4977 19.452 68.3624 19.76 68.0917 20.012C67.8304 20.2547 67.4944 20.376 67.0837 20.376ZM68.2737 21.188V29H65.8797V21.188H68.2737ZM69.5326 25.08C69.5326 24.2773 69.682 23.5727 69.9806 22.966C70.2886 22.3593 70.704 21.8927 71.2266 21.566C71.7493 21.2393 72.3326 21.076 72.9766 21.076C73.49 21.076 73.9566 21.1833 74.3766 21.398C74.806 21.6127 75.142 21.902 75.3846 22.266V18.64H77.7786V29H75.3846V27.88C75.1606 28.2533 74.8386 28.552 74.4186 28.776C74.008 29 73.5273 29.112 72.9766 29.112C72.3326 29.112 71.7493 28.9487 71.2266 28.622C70.704 28.286 70.2886 27.8147 69.9806 27.208C69.682 26.592 69.5326 25.8827 69.5326 25.08ZM75.3846 25.094C75.3846 24.4967 75.2166 24.0253 74.8806 23.68C74.554 23.3347 74.1526 23.162 73.6766 23.162C73.2006 23.162 72.7946 23.3347 72.4586 23.68C72.132 24.016 71.9686 24.4827 71.9686 25.08C71.9686 25.6773 72.132 26.1533 72.4586 26.508C72.7946 26.8533 73.2006 27.026 73.6766 27.026C74.1526 27.026 74.554 26.8533 74.8806 26.508C75.2166 26.1627 75.3846 25.6913 75.3846 25.094ZM82.6886 29.112C82.0072 29.112 81.4006 28.9953 80.8686 28.762C80.3366 28.5287 79.9166 28.2113 79.6086 27.81C79.3006 27.3993 79.1279 26.942 79.0906 26.438H81.4566C81.4846 26.7087 81.6106 26.928 81.8346 27.096C82.0586 27.264 82.3339 27.348 82.6606 27.348C82.9592 27.348 83.1879 27.292 83.3466 27.18C83.5146 27.0587 83.5986 26.9047 83.5986 26.718C83.5986 26.494 83.4819 26.3307 83.2486 26.228C83.0152 26.116 82.6372 25.9947 82.1146 25.864C81.5546 25.7333 81.0879 25.598 80.7146 25.458C80.3412 25.3087 80.0192 25.08 79.7486 24.772C79.4779 24.4547 79.3426 24.03 79.3426 23.498C79.3426 23.05 79.4639 22.644 79.7066 22.28C79.9586 21.9067 80.3226 21.6127 80.7986 21.398C81.2839 21.1833 81.8579 21.076 82.5206 21.076C83.5006 21.076 84.2706 21.3187 84.8306 21.804C85.3999 22.2893 85.7266 22.9333 85.8106 23.736H83.5986C83.5612 23.4653 83.4399 23.2507 83.2346 23.092C83.0386 22.9333 82.7772 22.854 82.4506 22.854C82.1706 22.854 81.9559 22.91 81.8066 23.022C81.6572 23.1247 81.5826 23.2693 81.5826 23.456C81.5826 23.68 81.6992 23.848 81.9326 23.96C82.1752 24.072 82.5486 24.184 83.0526 24.296C83.6312 24.4453 84.1026 24.5947 84.4666 24.744C84.8306 24.884 85.1479 25.1173 85.4186 25.444C85.6986 25.7613 85.8432 26.1907 85.8526 26.732C85.8526 27.1893 85.7219 27.6 85.4606 27.964C85.2086 28.3187 84.8399 28.5987 84.3546 28.804C83.8786 29.0093 83.3232 29.112 82.6886 29.112Z" fill="white"/>
<defs>
<clipPath id="clip0_1005_434">
<rect width="24" height="24" fill="white" transform="translate(0 4)"/>
</clipPath>
</defs>
</svg>
