<svg width="33" height="32" viewBox="0 0 33 32" fill="none" xmlns="http://www.w3.org/2000/svg">
<path d="M16.8145 0C7.97925 0 0.814453 7.1648 0.814453 16C0.814453 24.8352 7.97925 32 16.8145 32C25.6497 32 32.8145 24.8352 32.8145 16C32.8145 7.1648 25.6529 0 16.8145 0ZM8.70885 16.5376L8.77605 16.4288L12.9393 9.9168C13.0001 9.824 13.1441 9.8336 13.1889 9.936C13.8833 11.4944 14.4849 13.4336 14.2033 14.64C14.0849 15.136 13.7553 15.808 13.3841 16.4288C13.3361 16.5184 13.2849 16.608 13.2273 16.6944C13.2017 16.7328 13.1569 16.7552 13.1089 16.7552H8.83045C8.71525 16.7552 8.64805 16.6304 8.70885 16.5376ZM27.2593 18.7776C27.2593 18.8384 27.2241 18.8896 27.1729 18.912C26.8497 19.0496 25.7457 19.5584 25.2881 20.1952C24.1169 21.824 23.2241 24.1536 21.2241 24.1536H12.8849C9.92805 24.1536 7.53445 21.7504 7.53445 18.784V18.688C7.53445 18.6112 7.59845 18.5472 7.67845 18.5472H12.3249C12.4177 18.5472 12.4849 18.6304 12.4785 18.7232C12.4433 19.024 12.5009 19.3344 12.6449 19.616C12.9201 20.176 13.4929 20.5248 14.1105 20.5248H16.4113V18.7296H14.1361C14.0209 18.7296 13.9505 18.5952 14.0177 18.4992C14.0433 18.4608 14.0689 18.4224 14.1009 18.3776C14.3153 18.0704 14.6225 17.5968 14.9297 17.056C15.1377 16.6912 15.3393 16.3008 15.5025 15.9104C15.5345 15.84 15.5601 15.7664 15.5889 15.696C15.6337 15.5712 15.6785 15.4528 15.7105 15.3376C15.7425 15.2384 15.7713 15.136 15.7969 15.04C15.8737 14.7072 15.9057 14.3552 15.9057 13.9904C15.9057 13.8464 15.8993 13.696 15.8865 13.5552C15.8801 13.3984 15.8609 13.2416 15.8417 13.0848C15.8289 12.9472 15.8033 12.8096 15.7777 12.6688C15.7425 12.4608 15.6977 12.2528 15.6465 12.0448L15.6273 11.9648C15.5889 11.8208 15.5537 11.6864 15.5089 11.5424C15.3777 11.0944 15.2305 10.656 15.0705 10.2464C15.0129 10.0832 14.9489 9.9264 14.8817 9.7728C14.7857 9.536 14.6865 9.3216 14.5969 9.12C14.5489 9.0272 14.5105 8.944 14.4721 8.8576C14.4273 8.7616 14.3825 8.6656 14.3345 8.5728C14.3025 8.5024 14.2641 8.4352 14.2385 8.3712L13.9569 7.8528C13.9185 7.7824 13.9825 7.696 14.0593 7.7184L15.8193 8.1952H15.8257C15.8289 8.1952 15.8289 8.1952 15.8321 8.1952L16.0625 8.2624L16.3185 8.3328L16.4113 8.3584V7.3152C16.4113 6.8096 16.8145 6.4 17.3169 6.4C17.5665 6.4 17.7937 6.5024 17.9537 6.6688C18.1169 6.8352 18.2193 7.0624 18.2193 7.3152V8.8672L18.4081 8.9184C18.4209 8.9248 18.4369 8.9312 18.4497 8.9408C18.4945 8.9728 18.5617 9.024 18.6449 9.088C18.7121 9.1392 18.7825 9.2032 18.8657 9.2704C19.0353 9.408 19.2401 9.584 19.4609 9.7856C19.5185 9.8368 19.5761 9.888 19.6305 9.9424C19.9153 10.208 20.2353 10.5184 20.5425 10.864C20.6289 10.9632 20.7121 11.0592 20.7985 11.1648C20.8817 11.2704 20.9745 11.3728 21.0513 11.4752C21.1569 11.6128 21.2657 11.7568 21.3649 11.9072C21.4097 11.9776 21.4641 12.0512 21.5057 12.1216C21.6337 12.3104 21.7425 12.5056 21.8481 12.7008C21.8929 12.7904 21.9377 12.8896 21.9761 12.9856C22.0945 13.248 22.1873 13.5136 22.2449 13.7824C22.2641 13.84 22.2769 13.9008 22.2833 13.9584V13.9712C22.3025 14.048 22.3089 14.1312 22.3153 14.2176C22.3409 14.4896 22.3281 14.7648 22.2705 15.04C22.2449 15.1552 22.2129 15.264 22.1745 15.3824C22.1329 15.4944 22.0945 15.6096 22.0433 15.7216C21.9441 15.9488 21.8289 16.1792 21.6913 16.3904C21.6465 16.4704 21.5921 16.5536 21.5409 16.6336C21.4833 16.7168 21.4225 16.7968 21.3713 16.8736C21.2977 16.9728 21.2209 17.0752 21.1409 17.168C21.0705 17.264 21.0001 17.36 20.9201 17.4464C20.8113 17.5776 20.7057 17.6992 20.5937 17.8176C20.5297 17.8944 20.4593 17.9744 20.3857 18.0448C20.3153 18.1248 20.2417 18.1952 20.1777 18.2592C20.0657 18.3712 19.9761 18.4544 19.8993 18.528L19.7169 18.6912C19.6913 18.7168 19.6561 18.7296 19.6209 18.7296H18.2193V20.5248H19.9825C20.3761 20.5248 20.7505 20.3872 21.0545 20.128C21.1569 20.0384 21.6081 19.648 22.1425 19.0592C22.1617 19.0368 22.1841 19.024 22.2097 19.0176L27.0769 17.6096C27.1697 17.584 27.2593 17.6512 27.2593 17.7472V18.7776Z" fill="white" fill-opacity="0.6"/>
</svg>
