<svg width="33" height="27" viewBox="0 0 33 27" fill="none" xmlns="http://www.w3.org/2000/svg">
<path d="M10.8665 27C22.9425 27 29.5485 16.994 29.5485 8.33201C29.5485 8.05201 29.5485 7.76801 29.5365 7.48801C30.8226 6.55698 31.9326 5.40432 32.8145 4.08401C31.6131 4.61371 30.34 4.96282 29.0365 5.12001C30.4095 4.29929 31.4379 3.00795 31.9305 1.48601C30.6404 2.25026 29.2285 2.78676 27.7565 3.07201C26.7668 2.01806 25.4573 1.31985 24.0306 1.08553C22.604 0.851207 21.1399 1.09386 19.8651 1.77589C18.5904 2.45792 17.5761 3.54127 16.9794 4.85813C16.3826 6.175 16.2368 7.65188 16.5645 9.06001C13.9539 8.92912 11.4001 8.25095 9.06854 7.0695C6.73699 5.88805 4.67982 4.2297 3.03045 2.20201C2.19313 3.64818 1.9376 5.35881 2.31575 6.98655C2.69389 8.61428 3.67736 10.0371 5.06645 10.966C4.02553 10.9306 3.00749 10.6511 2.09445 10.15V10.24C2.09625 11.755 2.62107 13.2229 3.5802 14.3955C4.53933 15.5682 5.87395 16.3738 7.35845 16.676C6.79498 16.8312 6.21291 16.9086 5.62845 16.906C5.21642 16.9073 4.80521 16.8691 4.40045 16.792C4.82003 18.0961 5.637 19.2363 6.73695 20.053C7.83689 20.8696 9.16472 21.3217 10.5345 21.346C8.20756 23.1736 5.33326 24.1648 2.37445 24.16C1.85309 24.1622 1.3321 24.1322 0.814453 24.07C3.81748 25.9845 7.30505 27.0011 10.8665 27Z" fill="white" fill-opacity="0.6"/>
</svg>
